<?xml version="1.0" encoding="UTF-8" standalone="no"?>
<!-- Created with Inkscape (http://www.inkscape.org/) -->

<svg
   width="768pt"
   height="768pt"
   viewBox="0 0 270.93333 270.93333"
   version="1.1"
   id="svg1"
   xml:space="preserve"
   inkscape:version="1.4 (e7c3feb100, 2024-10-09)"
   sodipodi:docname="org.fteqw.fteqw.svg"
   xmlns:inkscape="http://www.inkscape.org/namespaces/inkscape"
   xmlns:sodipodi="http://sodipodi.sourceforge.net/DTD/sodipodi-0.dtd"
   xmlns:xlink="http://www.w3.org/1999/xlink"
   xmlns="http://www.w3.org/2000/svg"
   xmlns:svg="http://www.w3.org/2000/svg"><sodipodi:namedview
     id="namedview1"
     pagecolor="#ffffff"
     bordercolor="#000000"
     borderopacity="0.25"
     inkscape:showpageshadow="2"
     inkscape:pageopacity="0.0"
     inkscape:pagecheckerboard="0"
     inkscape:deskcolor="#d1d1d1"
     inkscape:document-units="mm"
     showguides="true"
     inkscape:zoom="0.35355339"
     inkscape:cx="-91.923882"
     inkscape:cy="552.9575"
     inkscape:window-width="1536"
     inkscape:window-height="792"
     inkscape:window-x="0"
     inkscape:window-y="0"
     inkscape:window-maximized="1"
     inkscape:current-layer="layer1" /><defs
     id="defs1"><linearGradient
       id="linearGradient8"
       inkscape:collect="always"><stop
         style="stop-color:#6354a8;stop-opacity:1;"
         offset="0"
         id="stop6" /><stop
         style="stop-color:#6354a8;stop-opacity:0;"
         offset="0.31597662"
         id="stop7" /></linearGradient><linearGradient
       id="linearGradient3"
       inkscape:collect="always"><stop
         style="stop-color:#ffffff;stop-opacity:1;"
         offset="0.1359546"
         id="stop3" /><stop
         style="stop-color:#5e5b67;stop-opacity:1;"
         offset="0.85000002"
         id="stop5" /><stop
         style="stop-color:#1b1b1b;stop-opacity:1;"
         offset="0.92193913"
         id="stop4" /></linearGradient><linearGradient
       id="linearGradient1"
       inkscape:collect="always"><stop
         style="stop-color:#c2a6f4;stop-opacity:1;"
         offset="0.15000001"
         id="stop1" /><stop
         style="stop-color:#5f51a5;stop-opacity:1;"
         offset="0.85000002"
         id="stop2" /></linearGradient><linearGradient
       inkscape:collect="always"
       xlink:href="#linearGradient1"
       id="linearGradient2"
       x1="90.224541"
       y1="133.34462"
       x2="120.3838"
       y2="163.38994"
       gradientUnits="userSpaceOnUse"
       gradientTransform="matrix(7.7407783,0,0,7.7407783,-679.66956,-1013.5067)" /><radialGradient
       inkscape:collect="always"
       xlink:href="#linearGradient3"
       id="radialGradient4"
       cx="105.30418"
       cy="148.36728"
       fx="105.30418"
       fy="148.36728"
       r="15.07963"
       gradientTransform="matrix(7.7407783,0,0,7.711533,-679.66956,-1009.1677)"
       gradientUnits="userSpaceOnUse" /><filter
       inkscape:collect="always"
       style="color-interpolation-filters:sRGB"
       id="filter5"
       x="-0.18338096"
       y="-0.236971"
       width="1.3667619"
       height="1.4493381"><feGaussianBlur
         inkscape:collect="always"
         stdDeviation="1.4923662"
         id="feGaussianBlur5" /></filter><radialGradient
       inkscape:collect="always"
       xlink:href="#linearGradient8"
       id="radialGradient4-5"
       cx="105.30418"
       cy="148.36728"
       fx="105.30418"
       fy="148.36728"
       r="15.07963"
       gradientTransform="matrix(5.6543409,0,4.3974529e-7,10.05075,-459.95913,-1356.231)"
       gradientUnits="userSpaceOnUse" /></defs><g
     inkscape:label="Layer 1"
     inkscape:groupmode="layer"
     id="layer1"><path
       style="fill:#ffffff;stroke:#000000;stroke-width:29.5781;stroke-linecap:round;stroke-linejoin:round;stroke-opacity:1;paint-order:stroke markers fill"
       id="path1"
       sodipodi:type="arc"
       sodipodi:cx="135.46672"
       sodipodi:cy="134.97151"
       sodipodi:rx="116.28813"
       sodipodi:ry="115.79288"
       sodipodi:start="0"
       sodipodi:end="6.2673744"
       sodipodi:open="true"
       sodipodi:arc-type="arc"
       d="M 251.75485,134.97151 A 116.28813,115.79288 0 0 1 135.92637,250.76348 116.28813,115.79288 0 0 1 19.182223,135.8869 116.28813,115.79288 0 0 1 134.08779,19.186776 116.28813,115.79288 0 0 1 251.74032,133.1408" /><path
       style="fill:url(#radialGradient4);stroke:url(#linearGradient2);stroke-width:26.3419;stroke-linecap:round;stroke-linejoin:round;stroke-dasharray:none;stroke-opacity:1;paint-order:stroke markers fill"
       id="path1-6"
       sodipodi:type="arc"
       sodipodi:cx="135.46672"
       sodipodi:cy="134.97151"
       sodipodi:rx="103.558"
       sodipodi:ry="103.11696"
       sodipodi:start="0"
       sodipodi:end="6.2673744"
       sodipodi:open="true"
       sodipodi:arc-type="arc"
       d="M 239.02472,134.97151 A 103.558,103.11696 0 0 1 135.87606,238.08766 103.558,103.11696 0 0 1 31.911958,135.78669 103.558,103.11696 0 0 1 134.23874,31.861803 103.558,103.11696 0 0 1 239.01178,133.34121" /><path
       style="fill:url(#radialGradient4-5);stroke:none;stroke-width:18.4217;stroke-linecap:round;stroke-linejoin:round;stroke-dasharray:none;stroke-opacity:1;paint-order:stroke markers fill"
       id="path1-6-6"
       sodipodi:type="arc"
       sodipodi:cx="135.46672"
       sodipodi:cy="134.97151"
       sodipodi:rx="72.421448"
       sodipodi:ry="72.113007"
       sodipodi:start="0"
       sodipodi:end="6.2673744"
       sodipodi:open="true"
       sodipodi:arc-type="arc"
       d="M 207.88817,134.97151 A 72.421448,72.113007 0 0 1 135.75298,207.08396 72.421448,72.113007 0 0 1 63.047536,135.54159 72.421448,72.113007 0 0 1 134.60795,62.863575 72.421448,72.113007 0 0 1 207.87912,133.83139" /><path
       id="rect5"
       style="mix-blend-mode:normal;fill:#6354a8;fill-opacity:1;stroke:#6354a8;stroke-width:1;stroke-linecap:square;stroke-linejoin:miter;stroke-dasharray:none;stroke-opacity:1;paint-order:stroke markers fill;filter:url(#filter5)"
       d="m 94.175528,147.42203 c 0.04622,3.02661 2.797482,4.24232 6.528932,5.21283 -3.437296,-1.76081 -5.275448,-2.8115 -5.295554,-4.53231 -0.0321,-2.75302 4.702994,-4.53446 8.919634,-4.78997 v 10.02325 l 0.84953,5.50816 0.84953,-5.50816 v -10.0357 c 4.27762,0.17609 9.20463,1.99436 9.17182,4.80242 -0.0201,1.72081 -1.85826,2.7715 -5.29556,4.53231 3.73145,-0.97051 6.48271,-2.18622 6.52893,-5.21283 0.0504,-3.29767 -5.754,-5.82779 -11.25472,-5.80224 -5.00102,0.0232 -11.052894,2.50457 -11.002542,5.80224 z"
       sodipodi:nodetypes="scscccccscsss"
       transform="matrix(8.6174749,0,0,8.6174749,-771.98936,-1149.1248)" /><path
       id="rect5-2"
       style="fill:#000000;fill-opacity:1;stroke:none;stroke-width:25.441;stroke-linecap:round;stroke-linejoin:round;stroke-opacity:1;paint-order:stroke markers fill"
       d="m 39.565816,121.28079 c 0.398108,26.08178 24.107299,36.55815 56.262964,44.92144 C 66.207949,151.02853 50.367731,141.97422 50.194438,127.14521 49.917783,103.42112 90.722421,88.069604 127.05918,85.867739 v 86.375091 l 7.32084,47.46645 7.32077,-47.46645 V 85.760452 c 36.86228,1.517425 79.32068,17.186308 79.03799,41.384758 -0.1734,14.82901 -16.0135,23.88332 -45.63437,39.05702 32.15566,-8.36329 55.86458,-18.83966 56.26284,-44.92144 C 231.80151,92.863236 181.78231,71.060018 134.38002,71.280165 91.283852,71.479877 39.131929,92.863236 39.565816,121.28079 Z"
       sodipodi:nodetypes="scscccccscsss" /></g></svg>
